<svg id="cart" xmlns="http://www.w3.org/2000/svg" width="25" height="25" viewBox="0 0 25 25" fill="none">
<path d="M8.99531 1.67344C9.08335 1.72616 9.16014 1.79571 9.2213 1.87811C9.28246 1.96052 9.32678 2.05416 9.35174 2.1537C9.37669 2.25324 9.3818 2.35672 9.36675 2.45823C9.35171 2.55974 9.31681 2.65729 9.26406 2.74531L5.28594 9.375H19.7141L15.7344 2.74531C15.6279 2.56753 15.5964 2.35473 15.6468 2.15371C15.6972 1.9527 15.8253 1.77994 16.0031 1.67344C16.1809 1.56693 16.3937 1.53542 16.5947 1.58582C16.7957 1.63622 16.9685 1.76441 17.075 1.94219L21.5359 9.375H23.4375C23.8519 9.375 24.2493 9.53962 24.5424 9.83264C24.8354 10.1257 25 10.5231 25 10.9375V12.5C25 12.9144 24.8354 13.3118 24.5424 13.6049C24.2493 13.8979 23.8519 14.0625 23.4375 14.0625V21.0937C23.4375 22.1297 23.0259 23.1233 22.2934 23.8559C21.5608 24.5884 20.5673 25 19.5312 25H5.46875C4.43275 25 3.43918 24.5884 2.70661 23.8559C1.97405 23.1233 1.5625 22.1297 1.5625 21.0937V14.0625C1.1481 14.0625 0.750671 13.8979 0.457646 13.6049C0.16462 13.3118 0 12.9144 0 12.5V10.9375C0 10.5231 0.16462 10.1257 0.457646 9.83264C0.750671 9.53962 1.1481 9.375 1.5625 9.375H3.46406L7.92188 1.94219C7.9746 1.85415 8.04414 1.77735 8.12655 1.7162C8.20895 1.65504 8.3026 1.61072 8.40214 1.58576C8.50168 1.5608 8.60516 1.5557 8.70667 1.57075C8.80818 1.58579 8.90573 1.62068 8.99375 1.67344H8.99531ZM3.125 14.0625V21.0937C3.125 21.7153 3.37193 22.3115 3.81147 22.751C4.25101 23.1906 4.84715 23.4375 5.46875 23.4375H19.5312C20.1529 23.4375 20.749 23.1906 21.1885 22.751C21.6281 22.3115 21.875 21.7153 21.875 21.0937V14.0625H3.125ZM1.5625 10.9375V12.5H23.4375V10.9375H1.5625ZM6.25 15.625C6.4572 15.625 6.65591 15.7073 6.80243 15.8538C6.94894 16.0003 7.03125 16.199 7.03125 16.4062V21.0937C7.03125 21.3009 6.94894 21.4997 6.80243 21.6462C6.65591 21.7927 6.4572 21.875 6.25 21.875C6.0428 21.875 5.84409 21.7927 5.69757 21.6462C5.55106 21.4997 5.46875 21.3009 5.46875 21.0937V16.4062C5.46875 16.199 5.55106 16.0003 5.69757 15.8538C5.84409 15.7073 6.0428 15.625 6.25 15.625ZM9.375 15.625C9.5822 15.625 9.78091 15.7073 9.92743 15.8538C10.0739 16.0003 10.1562 16.199 10.1562 16.4062V21.0937C10.1562 21.3009 10.0739 21.4997 9.92743 21.6462C9.78091 21.7927 9.5822 21.875 9.375 21.875C9.1678 21.875 8.96909 21.7927 8.82257 21.6462C8.67606 21.4997 8.59375 21.3009 8.59375 21.0937V16.4062C8.59375 16.199 8.67606 16.0003 8.82257 15.8538C8.96909 15.7073 9.1678 15.625 9.375 15.625ZM12.5 15.625C12.7072 15.625 12.9059 15.7073 13.0524 15.8538C13.1989 16.0003 13.2812 16.199 13.2812 16.4062V21.0937C13.2812 21.3009 13.1989 21.4997 13.0524 21.6462C12.9059 21.7927 12.7072 21.875 12.5 21.875C12.2928 21.875 12.0941 21.7927 11.9476 21.6462C11.8011 21.4997 11.7188 21.3009 11.7188 21.0937V16.4062C11.7188 16.199 11.8011 16.0003 11.9476 15.8538C12.0941 15.7073 12.2928 15.625 12.5 15.625ZM15.625 15.625C15.8322 15.625 16.0309 15.7073 16.1774 15.8538C16.3239 16.0003 16.4062 16.199 16.4062 16.4062V21.0937C16.4062 21.3009 16.3239 21.4997 16.1774 21.6462C16.0309 21.7927 15.8322 21.875 15.625 21.875C15.4178 21.875 15.2191 21.7927 15.0726 21.6462C14.9261 21.4997 14.8438 21.3009 14.8438 21.0937V16.4062C14.8438 16.199 14.9261 16.0003 15.0726 15.8538C15.2191 15.7073 15.4178 15.625 15.625 15.625ZM18.75 15.625C18.9572 15.625 19.1559 15.7073 19.3024 15.8538C19.4489 16.0003 19.5312 16.199 19.5312 16.4062V21.0937C19.5312 21.3009 19.4489 21.4997 19.3024 21.6462C19.1559 21.7927 18.9572 21.875 18.75 21.875C18.5428 21.875 18.3441 21.7927 18.1976 21.6462C18.0511 21.4997 17.9688 21.3009 17.9688 21.0937V16.4062C17.9688 16.199 18.0511 16.0003 18.1976 15.8538C18.3441 15.7073 18.5428 15.625 18.75 15.625Z" fill="currentcolor"/>
</svg>