<svg id="eye" xmlns="http://www.w3.org/2000/svg" width="20" height="20" viewBox="0 0 20 20" fill="none">
<path d="M16.6988 14.0475C18.825 12.15 20 10 20 10C20 10 16.25 3.125 10 3.125C8.7995 3.12913 7.61258 3.37928 6.51251 3.86L7.47501 4.82375C8.28431 4.52894 9.1387 4.3771 10 4.375C12.65 4.375 14.8488 5.835 16.46 7.44625C17.2355 8.22586 17.9306 9.08141 18.535 10C18.4625 10.1087 18.3825 10.2288 18.2913 10.36C17.8725 10.96 17.2538 11.76 16.46 12.5538C16.2538 12.76 16.0388 12.9637 15.8138 13.1613L16.6988 14.0475Z" fill="currentcolor"/>
<path d="M14.1213 11.47C14.4002 10.6898 14.4519 9.84642 14.2702 9.03801C14.0886 8.2296 13.6811 7.48939 13.0952 6.90351C12.5094 6.31763 11.7691 5.91016 10.9607 5.72852C10.1523 5.54688 9.30896 5.59854 8.52877 5.87749L9.55752 6.90624C10.0379 6.83748 10.5277 6.88154 10.9881 7.03494C11.4485 7.18834 11.8669 7.44685 12.21 7.79C12.5531 8.13315 12.8117 8.5515 12.9651 9.0119C13.1185 9.4723 13.1625 9.9621 13.0938 10.4425L14.1213 11.47ZM10.4425 13.0937L11.47 14.1212C10.6898 14.4002 9.84645 14.4518 9.03804 14.2702C8.22963 14.0886 7.48942 13.6811 6.90354 13.0952C6.31766 12.5093 5.91019 11.7691 5.72855 10.9607C5.54691 10.1523 5.59857 9.30893 5.87752 8.52874L6.90627 9.55749C6.83751 10.0379 6.88157 10.5277 7.03497 10.9881C7.18837 11.4485 7.44688 11.8668 7.79003 12.21C8.13318 12.5531 8.55153 12.8116 9.01193 12.965C9.47233 13.1184 9.96213 13.1625 10.4425 13.0937Z" fill="currentcolor"/>
<path d="M4.1875 6.83749C3.9625 7.0375 3.74625 7.24 3.54 7.44625C2.76456 8.22586 2.0694 9.0814 1.465 10L1.70875 10.36C2.1275 10.96 2.74625 11.76 3.54 12.5537C5.15125 14.165 7.35125 15.625 10 15.625C10.895 15.625 11.7375 15.4587 12.525 15.175L13.4875 16.14C12.3874 16.6207 11.2005 16.8708 10 16.875C3.75 16.875 0 10 0 10C0 10 1.17375 7.84875 3.30125 5.9525L4.18625 6.83875L4.1875 6.83749ZM17.0575 17.9425L2.0575 2.9425L2.9425 2.0575L17.9425 17.0575L17.0575 17.9425Z" fill="currentcolor"/>
</svg>